<?xml version="1.0" encoding="UTF-8"?><svg xmlns="http://www.w3.org/2000/svg" xmlns:xlink="http://www.w3.org/1999/xlink" height="1000.0" preserveAspectRatio="xMidYMid meet" version="1.0" viewBox="96.4 0.0 807.1 1000.0" width="807.1" zoomAndPan="magnify"><g><g id="change1_1"><path d="M 663.8125 391.300781 C 625.296875 391.300781 590.480469 375.511719 565.441406 350.070312 C 535.8125 375.734375 497.199219 391.300781 454.929688 391.300781 C 422.222656 391.300781 391.710938 381.976562 365.847656 365.886719 C 343.949219 381.855469 316.996094 391.300781 287.820312 391.300781 C 214.59375 391.300781 155.226562 331.933594 155.226562 258.703125 C 155.226562 185.472656 214.59375 126.109375 287.820312 126.109375 C 296.898438 126.109375 305.757812 127.023438 314.320312 128.761719 C 344.605469 83.367188 396.265625 53.453125 454.929688 53.453125 C 515 53.453125 567.710938 84.835938 597.65625 132.074219 C 617.300781 121.328125 639.839844 115.210938 663.8125 115.210938 C 721.824219 115.210938 771.445312 151.015625 791.871094 201.714844 C 801.613281 197.488281 812.355469 195.128906 823.652344 195.128906 C 867.789062 195.128906 903.570312 230.910156 903.570312 275.050781 C 903.570312 319.191406 867.789062 354.972656 823.652344 354.972656 C 804.605469 354.972656 787.121094 348.296875 773.390625 337.171875 C 748.15625 370.070312 708.472656 391.300781 663.8125 391.300781" fill="#cdcdcd"/></g><g id="change2_1"><path d="M 764.851562 141.675781 C 753.558594 141.675781 742.816406 144.035156 733.074219 148.261719 C 712.648438 97.558594 663.023438 61.757812 605.011719 61.757812 C 581.042969 61.757812 558.503906 67.875 538.859375 78.621094 C 508.910156 31.382812 456.199219 0 396.128906 0 C 337.46875 0 285.804688 29.914062 255.523438 75.308594 C 246.960938 73.570312 238.097656 72.65625 229.023438 72.65625 C 155.792969 72.65625 96.425781 132.019531 96.425781 205.25 C 96.425781 278.480469 155.792969 337.84375 229.023438 337.84375 C 258.195312 337.84375 285.152344 328.402344 307.046875 312.433594 C 332.914062 328.523438 363.425781 337.84375 396.128906 337.84375 C 438.402344 337.84375 477.015625 322.28125 506.644531 296.617188 C 531.683594 322.058594 566.496094 337.84375 605.011719 337.84375 C 649.675781 337.84375 689.359375 316.617188 714.589844 283.71875 C 728.320312 294.84375 745.804688 301.519531 764.851562 301.519531 C 808.992188 301.519531 844.773438 265.734375 844.773438 221.597656 C 844.773438 177.457031 808.992188 141.675781 764.851562 141.675781" fill="#f7f3e3"/></g><g id="change3_1"><path d="M 380.855469 388.5625 L 474.605469 388.5625 L 491.671875 444.453125 L 397.921875 444.453125 Z M 360.777344 322.8125 L 454.527344 322.8125 L 471.59375 378.699219 L 377.84375 378.699219 Z M 510.695312 508.5625 L 417.496094 508.5625 L 400.933594 454.316406 L 494.132812 454.316406 Z M 530.769531 574.3125 L 437.574219 574.3125 L 421.011719 520.066406 L 514.207031 520.066406 Z M 550.847656 640.066406 L 457.648438 640.066406 L 441.085938 585.820312 L 534.285156 585.820312 Z M 570.925781 705.816406 L 477.726562 705.816406 L 461.164062 651.570312 L 554.363281 651.570312 Z M 591.003906 771.570312 L 497.804688 771.570312 L 481.242188 717.324219 L 574.4375 717.324219 Z M 611.078125 837.320312 L 517.882812 837.320312 L 501.316406 783.074219 L 594.515625 783.074219 Z M 631.15625 903.074219 L 537.644531 903.074219 L 537.644531 903.859375 L 520.894531 847.183594 L 614.089844 847.183594 Z M 651.234375 968.824219 L 557.484375 968.824219 L 540.417969 912.9375 L 634.167969 912.9375 Z M 556.691406 1000 L 567.003906 1000 L 560.496094 978.6875 L 654.246094 978.6875 L 660.753906 1000 L 671.117188 1000 L 443.257812 252.128906 L 432.945312 252.128906 L 451.515625 312.949219 L 357.769531 312.949219 L 339.195312 252.128906 L 328.882812 252.128906 L 388.613281 447.738281 L 388.0625 447.738281 L 556.691406 1000" fill="#af9164"/></g></g></svg>